<?xml version="1.0" encoding="utf-8" standalone="no"?>
<!DOCTYPE svg PUBLIC "-//W3C//DTD SVG 1.1//EN"
  "http://www.w3.org/Graphics/SVG/1.1/DTD/svg11.dtd">
<svg xmlns:xlink="http://www.w3.org/1999/xlink" width="460.8pt" height="345.6pt" viewBox="0 0 460.8 345.6" xmlns="http://www.w3.org/2000/svg" version="1.1">
 <metadata>
  <rdf:RDF xmlns:dc="http://purl.org/dc/elements/1.1/" xmlns:cc="http://creativecommons.org/ns#" xmlns:rdf="http://www.w3.org/1999/02/22-rdf-syntax-ns#">
   <cc:Work>
    <dc:type rdf:resource="http://purl.org/dc/dcmitype/StillImage"/>
    <dc:date>2023-02-18T20:21:53.254768</dc:date>
    <dc:format>image/svg+xml</dc:format>
    <dc:creator>
     <cc:Agent>
      <dc:title>Matplotlib v3.6.1, https://matplotlib.org/</dc:title>
     </cc:Agent>
    </dc:creator>
   </cc:Work>
  </rdf:RDF>
 </metadata>
 <defs>
  <style type="text/css">*{stroke-linejoin: round; stroke-linecap: butt}</style>
 </defs>
 <g id="figure_1">
  <g id="patch_1">
   <path d="M 0 345.6 
L 460.8 345.6 
L 460.8 0 
L 0 0 
z
" style="fill: #ffffff"/>
  </g>
  <g id="axes_1">
   <g id="patch_2">
    <path d="M 57.6 307.584 
L 414.72 307.584 
L 414.72 41.472 
L 57.6 41.472 
z
" style="fill: #ffffff"/>
   </g>
   <g id="PathCollection_1">
    <defs>
     <path id="m9864f0f3bf" d="M 0 3 
C 0.795609 3 1.55874 2.683901 2.12132 2.12132 
C 2.683901 1.55874 3 0.795609 3 0 
C 3 -0.795609 2.683901 -1.55874 2.12132 -2.12132 
C 1.55874 -2.683901 0.795609 -3 0 -3 
C -0.795609 -3 -1.55874 -2.683901 -2.12132 -2.12132 
C -2.683901 -1.55874 -3 -0.795609 -3 0 
C -3 0.795609 -2.683901 1.55874 -2.12132 2.12132 
C -1.55874 2.683901 -0.795609 3 0 3 
z
" style="stroke: #ff0000"/>
    </defs>
    <g clip-path="url(#p312a8ea594)">
     <use xlink:href="#m9864f0f3bf" x="73.832727" y="287.880453" style="fill: #ff0000; stroke: #ff0000"/>
     <use xlink:href="#m9864f0f3bf" x="90.919809" y="290.923472" style="fill: #ff0000; stroke: #ff0000"/>
     <use xlink:href="#m9864f0f3bf" x="108.00689" y="292.444981" style="fill: #ff0000; stroke: #ff0000"/>
     <use xlink:href="#m9864f0f3bf" x="125.093971" y="262.014792" style="fill: #ff0000; stroke: #ff0000"/>
     <use xlink:href="#m9864f0f3bf" x="142.181053" y="268.10083" style="fill: #ff0000; stroke: #ff0000"/>
     <use xlink:href="#m9864f0f3bf" x="159.268134" y="283.315925" style="fill: #ff0000; stroke: #ff0000"/>
     <use xlink:href="#m9864f0f3bf" x="176.355215" y="275.708377" style="fill: #ff0000; stroke: #ff0000"/>
     <use xlink:href="#m9864f0f3bf" x="193.442297" y="280.272906" style="fill: #ff0000; stroke: #ff0000"/>
     <use xlink:href="#m9864f0f3bf" x="210.529378" y="266.579321" style="fill: #ff0000; stroke: #ff0000"/>
     <use xlink:href="#m9864f0f3bf" x="227.616459" y="263.536302" style="fill: #ff0000; stroke: #ff0000"/>
     <use xlink:href="#m9864f0f3bf" x="244.703541" y="263.536302" style="fill: #ff0000; stroke: #ff0000"/>
     <use xlink:href="#m9864f0f3bf" x="261.790622" y="266.579321" style="fill: #ff0000; stroke: #ff0000"/>
     <use xlink:href="#m9864f0f3bf" x="278.877703" y="268.10083" style="fill: #ff0000; stroke: #ff0000"/>
     <use xlink:href="#m9864f0f3bf" x="295.964785" y="263.536302" style="fill: #ff0000; stroke: #ff0000"/>
     <use xlink:href="#m9864f0f3bf" x="313.051866" y="269.62234" style="fill: #ff0000; stroke: #ff0000"/>
     <use xlink:href="#m9864f0f3bf" x="330.138947" y="265.057811" style="fill: #ff0000; stroke: #ff0000"/>
     <use xlink:href="#m9864f0f3bf" x="347.226029" y="265.057811" style="fill: #ff0000; stroke: #ff0000"/>
     <use xlink:href="#m9864f0f3bf" x="364.31311" y="263.536302" style="fill: #ff0000; stroke: #ff0000"/>
     <use xlink:href="#m9864f0f3bf" x="381.400191" y="140.294038" style="fill: #ff0000; stroke: #ff0000"/>
     <use xlink:href="#m9864f0f3bf" x="398.487273" y="147.901585" style="fill: #ff0000; stroke: #ff0000"/>
    </g>
   </g>
   <g id="PathCollection_2">
    <defs>
     <path id="m9eff3b9df7" d="M 0 3 
C 0.795609 3 1.55874 2.683901 2.12132 2.12132 
C 2.683901 1.55874 3 0.795609 3 0 
C 3 -0.795609 2.683901 -1.55874 2.12132 -2.12132 
C 1.55874 -2.683901 0.795609 -3 0 -3 
C -0.795609 -3 -1.55874 -2.683901 -2.12132 -2.12132 
C -2.683901 -1.55874 -3 -0.795609 -3 0 
C -3 0.795609 -2.683901 1.55874 -2.12132 2.12132 
C -1.55874 2.683901 -0.795609 3 0 3 
z
" style="stroke: #0000ff"/>
    </defs>
    <g clip-path="url(#p312a8ea594)">
     <use xlink:href="#m9eff3b9df7" x="73.832727" y="295.488" style="fill: #0000ff; stroke: #0000ff"/>
     <use xlink:href="#m9eff3b9df7" x="90.919809" y="265.057811" style="fill: #0000ff; stroke: #0000ff"/>
     <use xlink:href="#m9eff3b9df7" x="108.00689" y="274.186868" style="fill: #0000ff; stroke: #0000ff"/>
     <use xlink:href="#m9eff3b9df7" x="125.093971" y="295.488" style="fill: #0000ff; stroke: #0000ff"/>
     <use xlink:href="#m9eff3b9df7" x="142.181053" y="281.794415" style="fill: #0000ff; stroke: #0000ff"/>
     <use xlink:href="#m9eff3b9df7" x="159.268134" y="268.10083" style="fill: #0000ff; stroke: #0000ff"/>
     <use xlink:href="#m9eff3b9df7" x="176.355215" y="263.536302" style="fill: #0000ff; stroke: #0000ff"/>
     <use xlink:href="#m9eff3b9df7" x="193.442297" y="265.057811" style="fill: #0000ff; stroke: #0000ff"/>
     <use xlink:href="#m9eff3b9df7" x="210.529378" y="269.62234" style="fill: #0000ff; stroke: #0000ff"/>
     <use xlink:href="#m9eff3b9df7" x="227.616459" y="266.579321" style="fill: #0000ff; stroke: #0000ff"/>
     <use xlink:href="#m9eff3b9df7" x="244.703541" y="265.057811" style="fill: #0000ff; stroke: #0000ff"/>
     <use xlink:href="#m9eff3b9df7" x="261.790622" y="163.116679" style="fill: #0000ff; stroke: #0000ff"/>
     <use xlink:href="#m9eff3b9df7" x="278.877703" y="141.815547" style="fill: #0000ff; stroke: #0000ff"/>
     <use xlink:href="#m9eff3b9df7" x="295.964785" y="140.294038" style="fill: #0000ff; stroke: #0000ff"/>
     <use xlink:href="#m9eff3b9df7" x="313.051866" y="140.294038" style="fill: #0000ff; stroke: #0000ff"/>
     <use xlink:href="#m9eff3b9df7" x="330.138947" y="132.686491" style="fill: #0000ff; stroke: #0000ff"/>
     <use xlink:href="#m9eff3b9df7" x="347.226029" y="118.992906" style="fill: #0000ff; stroke: #0000ff"/>
     <use xlink:href="#m9eff3b9df7" x="364.31311" y="153.987623" style="fill: #0000ff; stroke: #0000ff"/>
     <use xlink:href="#m9eff3b9df7" x="381.400191" y="122.035925" style="fill: #0000ff; stroke: #0000ff"/>
     <use xlink:href="#m9eff3b9df7" x="398.487273" y="128.121962" style="fill: #0000ff; stroke: #0000ff"/>
    </g>
   </g>
   <g id="PathCollection_3">
    <defs>
     <path id="m64dfa57ed0" d="M 0 3 
C 0.795609 3 1.55874 2.683901 2.12132 2.12132 
C 2.683901 1.55874 3 0.795609 3 0 
C 3 -0.795609 2.683901 -1.55874 2.12132 -2.12132 
C 1.55874 -2.683901 0.795609 -3 0 -3 
C -0.795609 -3 -1.55874 -2.683901 -2.12132 -2.12132 
C -2.683901 -1.55874 -3 -0.795609 -3 0 
C -3 0.795609 -2.683901 1.55874 -2.12132 2.12132 
C -1.55874 2.683901 -0.795609 3 0 3 
z
" style="stroke: #ffa500"/>
    </defs>
    <g clip-path="url(#p312a8ea594)">
     <use xlink:href="#m64dfa57ed0" x="73.832727" y="268.10083" style="fill: #ffa500; stroke: #ffa500"/>
     <use xlink:href="#m64dfa57ed0" x="90.919809" y="286.358943" style="fill: #ffa500; stroke: #ffa500"/>
     <use xlink:href="#m64dfa57ed0" x="108.00689" y="269.62234" style="fill: #ffa500; stroke: #ffa500"/>
     <use xlink:href="#m64dfa57ed0" x="125.093971" y="260.493283" style="fill: #ffa500; stroke: #ffa500"/>
     <use xlink:href="#m64dfa57ed0" x="142.181053" y="152.466113" style="fill: #ffa500; stroke: #ffa500"/>
     <use xlink:href="#m64dfa57ed0" x="159.268134" y="263.536302" style="fill: #ffa500; stroke: #ffa500"/>
     <use xlink:href="#m64dfa57ed0" x="176.355215" y="153.987623" style="fill: #ffa500; stroke: #ffa500"/>
     <use xlink:href="#m64dfa57ed0" x="193.442297" y="143.337057" style="fill: #ffa500; stroke: #ffa500"/>
     <use xlink:href="#m64dfa57ed0" x="210.529378" y="161.59517" style="fill: #ffa500; stroke: #ffa500"/>
     <use xlink:href="#m64dfa57ed0" x="227.616459" y="132.686491" style="fill: #ffa500; stroke: #ffa500"/>
     <use xlink:href="#m64dfa57ed0" x="244.703541" y="118.992906" style="fill: #ffa500; stroke: #ffa500"/>
     <use xlink:href="#m64dfa57ed0" x="261.790622" y="117.471396" style="fill: #ffa500; stroke: #ffa500"/>
     <use xlink:href="#m64dfa57ed0" x="278.877703" y="129.643472" style="fill: #ffa500; stroke: #ffa500"/>
     <use xlink:href="#m64dfa57ed0" x="295.964785" y="115.949887" style="fill: #ffa500; stroke: #ffa500"/>
     <use xlink:href="#m64dfa57ed0" x="313.051866" y="111.385358" style="fill: #ffa500; stroke: #ffa500"/>
     <use xlink:href="#m64dfa57ed0" x="330.138947" y="105.299321" style="fill: #ffa500; stroke: #ffa500"/>
     <use xlink:href="#m64dfa57ed0" x="347.226029" y="111.385358" style="fill: #ffa500; stroke: #ffa500"/>
     <use xlink:href="#m64dfa57ed0" x="364.31311" y="102.256302" style="fill: #ffa500; stroke: #ffa500"/>
     <use xlink:href="#m64dfa57ed0" x="381.400191" y="90.084226" style="fill: #ffa500; stroke: #ffa500"/>
     <use xlink:href="#m64dfa57ed0" x="398.487273" y="80.95517" style="fill: #ffa500; stroke: #ffa500"/>
    </g>
   </g>
   <g id="PathCollection_4">
    <defs>
     <path id="m7200086ecc" d="M 0 3 
C 0.795609 3 1.55874 2.683901 2.12132 2.12132 
C 2.683901 1.55874 3 0.795609 3 0 
C 3 -0.795609 2.683901 -1.55874 2.12132 -2.12132 
C 1.55874 -2.683901 0.795609 -3 0 -3 
C -0.795609 -3 -1.55874 -2.683901 -2.12132 -2.12132 
C -2.683901 -1.55874 -3 -0.795609 -3 0 
C -3 0.795609 -2.683901 1.55874 -2.12132 2.12132 
C -1.55874 2.683901 -0.795609 3 0 3 
z
" style="stroke: #008000"/>
    </defs>
    <g clip-path="url(#p312a8ea594)">
     <use xlink:href="#m7200086ecc" x="73.832727" y="286.358943" style="fill: #008000; stroke: #008000"/>
     <use xlink:href="#m7200086ecc" x="90.919809" y="266.579321" style="fill: #008000; stroke: #008000"/>
     <use xlink:href="#m7200086ecc" x="108.00689" y="293.966491" style="fill: #008000; stroke: #008000"/>
     <use xlink:href="#m7200086ecc" x="125.093971" y="265.057811" style="fill: #008000; stroke: #008000"/>
     <use xlink:href="#m7200086ecc" x="142.181053" y="144.858566" style="fill: #008000; stroke: #008000"/>
     <use xlink:href="#m7200086ecc" x="159.268134" y="146.380075" style="fill: #008000; stroke: #008000"/>
     <use xlink:href="#m7200086ecc" x="176.355215" y="152.466113" style="fill: #008000; stroke: #008000"/>
     <use xlink:href="#m7200086ecc" x="193.442297" y="129.643472" style="fill: #008000; stroke: #008000"/>
     <use xlink:href="#m7200086ecc" x="210.529378" y="126.600453" style="fill: #008000; stroke: #008000"/>
     <use xlink:href="#m7200086ecc" x="227.616459" y="94.648755" style="fill: #008000; stroke: #008000"/>
     <use xlink:href="#m7200086ecc" x="244.703541" y="90.084226" style="fill: #008000; stroke: #008000"/>
     <use xlink:href="#m7200086ecc" x="261.790622" y="96.170264" style="fill: #008000; stroke: #008000"/>
     <use xlink:href="#m7200086ecc" x="278.877703" y="82.476679" style="fill: #008000; stroke: #008000"/>
     <use xlink:href="#m7200086ecc" x="295.964785" y="83.998189" style="fill: #008000; stroke: #008000"/>
     <use xlink:href="#m7200086ecc" x="313.051866" y="79.43366" style="fill: #008000; stroke: #008000"/>
     <use xlink:href="#m7200086ecc" x="330.138947" y="88.562717" style="fill: #008000; stroke: #008000"/>
     <use xlink:href="#m7200086ecc" x="347.226029" y="77.912151" style="fill: #008000; stroke: #008000"/>
     <use xlink:href="#m7200086ecc" x="364.31311" y="59.654038" style="fill: #008000; stroke: #008000"/>
     <use xlink:href="#m7200086ecc" x="381.400191" y="53.568" style="fill: #008000; stroke: #008000"/>
     <use xlink:href="#m7200086ecc" x="398.487273" y="59.654038" style="fill: #008000; stroke: #008000"/>
    </g>
   </g>
   <g id="matplotlib.axis_1">
    <g id="xtick_1">
     <g id="line2d_1">
      <defs>
       <path id="m7153f87339" d="M 0 0 
L 0 3.5 
" style="stroke: #000000; stroke-width: 0.8"/>
      </defs>
      <g>
       <use xlink:href="#m7153f87339" x="123.492057" y="307.584" style="stroke: #000000; stroke-width: 0.8"/>
      </g>
     </g>
     <g id="text_1">
      <!-- 2000 -->
      <g transform="translate(110.767057 322.182437) scale(0.1 -0.1)">
       <defs>
        <path id="DejaVuSans-32" d="M 1228 531 
L 3431 531 
L 3431 0 
L 469 0 
L 469 531 
Q 828 903 1448 1529 
Q 2069 2156 2228 2338 
Q 2531 2678 2651 2914 
Q 2772 3150 2772 3378 
Q 2772 3750 2511 3984 
Q 2250 4219 1831 4219 
Q 1534 4219 1204 4116 
Q 875 4013 500 3803 
L 500 4441 
Q 881 4594 1212 4672 
Q 1544 4750 1819 4750 
Q 2544 4750 2975 4387 
Q 3406 4025 3406 3419 
Q 3406 3131 3298 2873 
Q 3191 2616 2906 2266 
Q 2828 2175 2409 1742 
Q 1991 1309 1228 531 
z
" transform="scale(0.015625)"/>
        <path id="DejaVuSans-30" d="M 2034 4250 
Q 1547 4250 1301 3770 
Q 1056 3291 1056 2328 
Q 1056 1369 1301 889 
Q 1547 409 2034 409 
Q 2525 409 2770 889 
Q 3016 1369 3016 2328 
Q 3016 3291 2770 3770 
Q 2525 4250 2034 4250 
z
M 2034 4750 
Q 2819 4750 3233 4129 
Q 3647 3509 3647 2328 
Q 3647 1150 3233 529 
Q 2819 -91 2034 -91 
Q 1250 -91 836 529 
Q 422 1150 422 2328 
Q 422 3509 836 4129 
Q 1250 4750 2034 4750 
z
" transform="scale(0.015625)"/>
       </defs>
       <use xlink:href="#DejaVuSans-32"/>
       <use xlink:href="#DejaVuSans-30" x="63.623047"/>
       <use xlink:href="#DejaVuSans-30" x="127.246094"/>
       <use xlink:href="#DejaVuSans-30" x="190.869141"/>
      </g>
     </g>
    </g>
    <g id="xtick_2">
     <g id="line2d_2">
      <g>
       <use xlink:href="#m7153f87339" x="190.238469" y="307.584" style="stroke: #000000; stroke-width: 0.8"/>
      </g>
     </g>
     <g id="text_2">
      <!-- 4000 -->
      <g transform="translate(177.513469 322.182437) scale(0.1 -0.1)">
       <defs>
        <path id="DejaVuSans-34" d="M 2419 4116 
L 825 1625 
L 2419 1625 
L 2419 4116 
z
M 2253 4666 
L 3047 4666 
L 3047 1625 
L 3713 1625 
L 3713 1100 
L 3047 1100 
L 3047 0 
L 2419 0 
L 2419 1100 
L 313 1100 
L 313 1709 
L 2253 4666 
z
" transform="scale(0.015625)"/>
       </defs>
       <use xlink:href="#DejaVuSans-34"/>
       <use xlink:href="#DejaVuSans-30" x="63.623047"/>
       <use xlink:href="#DejaVuSans-30" x="127.246094"/>
       <use xlink:href="#DejaVuSans-30" x="190.869141"/>
      </g>
     </g>
    </g>
    <g id="xtick_3">
     <g id="line2d_3">
      <g>
       <use xlink:href="#m7153f87339" x="256.98488" y="307.584" style="stroke: #000000; stroke-width: 0.8"/>
      </g>
     </g>
     <g id="text_3">
      <!-- 6000 -->
      <g transform="translate(244.25988 322.182437) scale(0.1 -0.1)">
       <defs>
        <path id="DejaVuSans-36" d="M 2113 2584 
Q 1688 2584 1439 2293 
Q 1191 2003 1191 1497 
Q 1191 994 1439 701 
Q 1688 409 2113 409 
Q 2538 409 2786 701 
Q 3034 994 3034 1497 
Q 3034 2003 2786 2293 
Q 2538 2584 2113 2584 
z
M 3366 4563 
L 3366 3988 
Q 3128 4100 2886 4159 
Q 2644 4219 2406 4219 
Q 1781 4219 1451 3797 
Q 1122 3375 1075 2522 
Q 1259 2794 1537 2939 
Q 1816 3084 2150 3084 
Q 2853 3084 3261 2657 
Q 3669 2231 3669 1497 
Q 3669 778 3244 343 
Q 2819 -91 2113 -91 
Q 1303 -91 875 529 
Q 447 1150 447 2328 
Q 447 3434 972 4092 
Q 1497 4750 2381 4750 
Q 2619 4750 2861 4703 
Q 3103 4656 3366 4563 
z
" transform="scale(0.015625)"/>
       </defs>
       <use xlink:href="#DejaVuSans-36"/>
       <use xlink:href="#DejaVuSans-30" x="63.623047"/>
       <use xlink:href="#DejaVuSans-30" x="127.246094"/>
       <use xlink:href="#DejaVuSans-30" x="190.869141"/>
      </g>
     </g>
    </g>
    <g id="xtick_4">
     <g id="line2d_4">
      <g>
       <use xlink:href="#m7153f87339" x="323.731292" y="307.584" style="stroke: #000000; stroke-width: 0.8"/>
      </g>
     </g>
     <g id="text_4">
      <!-- 8000 -->
      <g transform="translate(311.006292 322.182437) scale(0.1 -0.1)">
       <defs>
        <path id="DejaVuSans-38" d="M 2034 2216 
Q 1584 2216 1326 1975 
Q 1069 1734 1069 1313 
Q 1069 891 1326 650 
Q 1584 409 2034 409 
Q 2484 409 2743 651 
Q 3003 894 3003 1313 
Q 3003 1734 2745 1975 
Q 2488 2216 2034 2216 
z
M 1403 2484 
Q 997 2584 770 2862 
Q 544 3141 544 3541 
Q 544 4100 942 4425 
Q 1341 4750 2034 4750 
Q 2731 4750 3128 4425 
Q 3525 4100 3525 3541 
Q 3525 3141 3298 2862 
Q 3072 2584 2669 2484 
Q 3125 2378 3379 2068 
Q 3634 1759 3634 1313 
Q 3634 634 3220 271 
Q 2806 -91 2034 -91 
Q 1263 -91 848 271 
Q 434 634 434 1313 
Q 434 1759 690 2068 
Q 947 2378 1403 2484 
z
M 1172 3481 
Q 1172 3119 1398 2916 
Q 1625 2713 2034 2713 
Q 2441 2713 2670 2916 
Q 2900 3119 2900 3481 
Q 2900 3844 2670 4047 
Q 2441 4250 2034 4250 
Q 1625 4250 1398 4047 
Q 1172 3844 1172 3481 
z
" transform="scale(0.015625)"/>
       </defs>
       <use xlink:href="#DejaVuSans-38"/>
       <use xlink:href="#DejaVuSans-30" x="63.623047"/>
       <use xlink:href="#DejaVuSans-30" x="127.246094"/>
       <use xlink:href="#DejaVuSans-30" x="190.869141"/>
      </g>
     </g>
    </g>
    <g id="xtick_5">
     <g id="line2d_5">
      <g>
       <use xlink:href="#m7153f87339" x="390.477703" y="307.584" style="stroke: #000000; stroke-width: 0.8"/>
      </g>
     </g>
     <g id="text_5">
      <!-- 10000 -->
      <g transform="translate(374.571453 322.182437) scale(0.1 -0.1)">
       <defs>
        <path id="DejaVuSans-31" d="M 794 531 
L 1825 531 
L 1825 4091 
L 703 3866 
L 703 4441 
L 1819 4666 
L 2450 4666 
L 2450 531 
L 3481 531 
L 3481 0 
L 794 0 
L 794 531 
z
" transform="scale(0.015625)"/>
       </defs>
       <use xlink:href="#DejaVuSans-31"/>
       <use xlink:href="#DejaVuSans-30" x="63.623047"/>
       <use xlink:href="#DejaVuSans-30" x="127.246094"/>
       <use xlink:href="#DejaVuSans-30" x="190.869141"/>
       <use xlink:href="#DejaVuSans-30" x="254.492188"/>
      </g>
     </g>
    </g>
   </g>
   <g id="matplotlib.axis_2">
    <g id="ytick_1">
     <g id="line2d_6">
      <defs>
       <path id="mc986467257" d="M 0 0 
L -3.5 0 
" style="stroke: #000000; stroke-width: 0.8"/>
      </defs>
      <g>
       <use xlink:href="#mc986467257" x="57.6" y="280.272906" style="stroke: #000000; stroke-width: 0.8"/>
      </g>
     </g>
     <g id="text_6">
      <!-- 40 -->
      <g transform="translate(37.875 284.072124) scale(0.1 -0.1)">
       <use xlink:href="#DejaVuSans-34"/>
       <use xlink:href="#DejaVuSans-30" x="63.623047"/>
      </g>
     </g>
    </g>
    <g id="ytick_2">
     <g id="line2d_7">
      <g>
       <use xlink:href="#mc986467257" x="57.6" y="249.842717" style="stroke: #000000; stroke-width: 0.8"/>
      </g>
     </g>
     <g id="text_7">
      <!-- 60 -->
      <g transform="translate(37.875 253.641936) scale(0.1 -0.1)">
       <use xlink:href="#DejaVuSans-36"/>
       <use xlink:href="#DejaVuSans-30" x="63.623047"/>
      </g>
     </g>
    </g>
    <g id="ytick_3">
     <g id="line2d_8">
      <g>
       <use xlink:href="#mc986467257" x="57.6" y="219.412528" style="stroke: #000000; stroke-width: 0.8"/>
      </g>
     </g>
     <g id="text_8">
      <!-- 80 -->
      <g transform="translate(37.875 223.211747) scale(0.1 -0.1)">
       <use xlink:href="#DejaVuSans-38"/>
       <use xlink:href="#DejaVuSans-30" x="63.623047"/>
      </g>
     </g>
    </g>
    <g id="ytick_4">
     <g id="line2d_9">
      <g>
       <use xlink:href="#mc986467257" x="57.6" y="188.98234" style="stroke: #000000; stroke-width: 0.8"/>
      </g>
     </g>
     <g id="text_9">
      <!-- 100 -->
      <g transform="translate(31.5125 192.781558) scale(0.1 -0.1)">
       <use xlink:href="#DejaVuSans-31"/>
       <use xlink:href="#DejaVuSans-30" x="63.623047"/>
       <use xlink:href="#DejaVuSans-30" x="127.246094"/>
      </g>
     </g>
    </g>
    <g id="ytick_5">
     <g id="line2d_10">
      <g>
       <use xlink:href="#mc986467257" x="57.6" y="158.552151" style="stroke: #000000; stroke-width: 0.8"/>
      </g>
     </g>
     <g id="text_10">
      <!-- 120 -->
      <g transform="translate(31.5125 162.35137) scale(0.1 -0.1)">
       <use xlink:href="#DejaVuSans-31"/>
       <use xlink:href="#DejaVuSans-32" x="63.623047"/>
       <use xlink:href="#DejaVuSans-30" x="127.246094"/>
      </g>
     </g>
    </g>
    <g id="ytick_6">
     <g id="line2d_11">
      <g>
       <use xlink:href="#mc986467257" x="57.6" y="128.121962" style="stroke: #000000; stroke-width: 0.8"/>
      </g>
     </g>
     <g id="text_11">
      <!-- 140 -->
      <g transform="translate(31.5125 131.921181) scale(0.1 -0.1)">
       <use xlink:href="#DejaVuSans-31"/>
       <use xlink:href="#DejaVuSans-34" x="63.623047"/>
       <use xlink:href="#DejaVuSans-30" x="127.246094"/>
      </g>
     </g>
    </g>
    <g id="ytick_7">
     <g id="line2d_12">
      <g>
       <use xlink:href="#mc986467257" x="57.6" y="97.691774" style="stroke: #000000; stroke-width: 0.8"/>
      </g>
     </g>
     <g id="text_12">
      <!-- 160 -->
      <g transform="translate(31.5125 101.490992) scale(0.1 -0.1)">
       <use xlink:href="#DejaVuSans-31"/>
       <use xlink:href="#DejaVuSans-36" x="63.623047"/>
       <use xlink:href="#DejaVuSans-30" x="127.246094"/>
      </g>
     </g>
    </g>
    <g id="ytick_8">
     <g id="line2d_13">
      <g>
       <use xlink:href="#mc986467257" x="57.6" y="67.261585" style="stroke: #000000; stroke-width: 0.8"/>
      </g>
     </g>
     <g id="text_13">
      <!-- 180 -->
      <g transform="translate(31.5125 71.060804) scale(0.1 -0.1)">
       <use xlink:href="#DejaVuSans-31"/>
       <use xlink:href="#DejaVuSans-38" x="63.623047"/>
       <use xlink:href="#DejaVuSans-30" x="127.246094"/>
      </g>
     </g>
    </g>
   </g>
   <g id="patch_3">
    <path d="M 57.6 307.584 
L 57.6 41.472 
" style="fill: none; stroke: #000000; stroke-width: 0.8; stroke-linejoin: miter; stroke-linecap: square"/>
   </g>
   <g id="patch_4">
    <path d="M 414.72 307.584 
L 414.72 41.472 
" style="fill: none; stroke: #000000; stroke-width: 0.8; stroke-linejoin: miter; stroke-linecap: square"/>
   </g>
   <g id="patch_5">
    <path d="M 57.6 307.584 
L 414.72 307.584 
" style="fill: none; stroke: #000000; stroke-width: 0.8; stroke-linejoin: miter; stroke-linecap: square"/>
   </g>
   <g id="patch_6">
    <path d="M 57.6 41.472 
L 414.72 41.472 
" style="fill: none; stroke: #000000; stroke-width: 0.8; stroke-linejoin: miter; stroke-linecap: square"/>
   </g>
  </g>
 </g>
 <defs>
  <clipPath id="p312a8ea594">
   <rect x="57.6" y="41.472" width="357.12" height="266.112"/>
  </clipPath>
 </defs>
</svg>
