<?xml version="1.0" encoding="utf-8" standalone="no"?>
<!DOCTYPE svg PUBLIC "-//W3C//DTD SVG 1.1//EN"
  "http://www.w3.org/Graphics/SVG/1.1/DTD/svg11.dtd">
<svg xmlns:xlink="http://www.w3.org/1999/xlink" width="460.8pt" height="345.6pt" viewBox="0 0 460.8 345.6" xmlns="http://www.w3.org/2000/svg" version="1.1">
 <metadata>
  <rdf:RDF xmlns:dc="http://purl.org/dc/elements/1.1/" xmlns:cc="http://creativecommons.org/ns#" xmlns:rdf="http://www.w3.org/1999/02/22-rdf-syntax-ns#">
   <cc:Work>
    <dc:type rdf:resource="http://purl.org/dc/dcmitype/StillImage"/>
    <dc:date>2023-03-10T10:11:00.609066</dc:date>
    <dc:format>image/svg+xml</dc:format>
    <dc:creator>
     <cc:Agent>
      <dc:title>Matplotlib v3.6.1, https://matplotlib.org/</dc:title>
     </cc:Agent>
    </dc:creator>
   </cc:Work>
  </rdf:RDF>
 </metadata>
 <defs>
  <style type="text/css">*{stroke-linejoin: round; stroke-linecap: butt}</style>
 </defs>
 <g id="figure_1">
  <g id="patch_1">
   <path d="M 0 345.6 
L 460.8 345.6 
L 460.8 0 
L 0 0 
z
" style="fill: #ffffff"/>
  </g>
  <g id="axes_1">
   <g id="patch_2">
    <path d="M 57.6 307.584 
L 414.72 307.584 
L 414.72 41.472 
L 57.6 41.472 
z
" style="fill: #ffffff"/>
   </g>
   <g id="PathCollection_1">
    <defs>
     <path id="m4ee56a3fa7" d="M 0 3 
C 0.795609 3 1.55874 2.683901 2.12132 2.12132 
C 2.683901 1.55874 3 0.795609 3 0 
C 3 -0.795609 2.683901 -1.55874 2.12132 -2.12132 
C 1.55874 -2.683901 0.795609 -3 0 -3 
C -0.795609 -3 -1.55874 -2.683901 -2.12132 -2.12132 
C -2.683901 -1.55874 -3 -0.795609 -3 0 
C -3 0.795609 -2.683901 1.55874 -2.12132 2.12132 
C -1.55874 2.683901 -0.795609 3 0 3 
z
" style="stroke: #ff0000"/>
    </defs>
    <g clip-path="url(#pa5157bf661)">
     <use xlink:href="#m4ee56a3fa7" x="73.832727" y="295.488" style="fill: #ff0000; stroke: #ff0000"/>
     <use xlink:href="#m4ee56a3fa7" x="90.919809" y="290.696208" style="fill: #ff0000; stroke: #ff0000"/>
     <use xlink:href="#m4ee56a3fa7" x="108.00689" y="285.904415" style="fill: #ff0000; stroke: #ff0000"/>
     <use xlink:href="#m4ee56a3fa7" x="125.093971" y="280.625957" style="fill: #ff0000; stroke: #ff0000"/>
     <use xlink:href="#m4ee56a3fa7" x="142.181053" y="275.8716" style="fill: #ff0000; stroke: #ff0000"/>
     <use xlink:href="#m4ee56a3fa7" x="159.268134" y="271.529038" style="fill: #ff0000; stroke: #ff0000"/>
     <use xlink:href="#m4ee56a3fa7" x="176.355215" y="266.737246" style="fill: #ff0000; stroke: #ff0000"/>
     <use xlink:href="#m4ee56a3fa7" x="193.442297" y="261.945454" style="fill: #ff0000; stroke: #ff0000"/>
     <use xlink:href="#m4ee56a3fa7" x="210.529378" y="256.704431" style="fill: #ff0000; stroke: #ff0000"/>
     <use xlink:href="#m4ee56a3fa7" x="227.616459" y="219.605476" style="fill: #ff0000; stroke: #ff0000"/>
     <use xlink:href="#m4ee56a3fa7" x="244.703541" y="247.120846" style="fill: #ff0000; stroke: #ff0000"/>
     <use xlink:href="#m4ee56a3fa7" x="261.790622" y="242.291618" style="fill: #ff0000; stroke: #ff0000"/>
     <use xlink:href="#m4ee56a3fa7" x="278.877703" y="237.499826" style="fill: #ff0000; stroke: #ff0000"/>
     <use xlink:href="#m4ee56a3fa7" x="295.964785" y="232.708033" style="fill: #ff0000; stroke: #ff0000"/>
     <use xlink:href="#m4ee56a3fa7" x="313.051866" y="227.916241" style="fill: #ff0000; stroke: #ff0000"/>
     <use xlink:href="#m4ee56a3fa7" x="330.138947" y="223.124449" style="fill: #ff0000; stroke: #ff0000"/>
     <use xlink:href="#m4ee56a3fa7" x="347.226029" y="218.332656" style="fill: #ff0000; stroke: #ff0000"/>
     <use xlink:href="#m4ee56a3fa7" x="364.31311" y="202.160357" style="fill: #ff0000; stroke: #ff0000"/>
     <use xlink:href="#m4ee56a3fa7" x="381.400191" y="197.387283" style="fill: #ff0000; stroke: #ff0000"/>
     <use xlink:href="#m4ee56a3fa7" x="398.487273" y="193.830874" style="fill: #ff0000; stroke: #ff0000"/>
    </g>
   </g>
   <g id="PathCollection_2">
    <defs>
     <path id="mc9c268245b" d="M 0 3 
C 0.795609 3 1.55874 2.683901 2.12132 2.12132 
C 2.683901 1.55874 3 0.795609 3 0 
C 3 -0.795609 2.683901 -1.55874 2.12132 -2.12132 
C 1.55874 -2.683901 0.795609 -3 0 -3 
C -0.795609 -3 -1.55874 -2.683901 -2.12132 -2.12132 
C -2.683901 -1.55874 -3 -0.795609 -3 0 
C -3 0.795609 -2.683901 1.55874 -2.12132 2.12132 
C -1.55874 2.683901 -0.795609 3 0 3 
z
" style="stroke: #0000ff"/>
    </defs>
    <g clip-path="url(#pa5157bf661)">
     <use xlink:href="#mc9c268245b" x="73.832727" y="295.488" style="fill: #0000ff; stroke: #0000ff"/>
     <use xlink:href="#mc9c268245b" x="90.919809" y="290.209541" style="fill: #0000ff; stroke: #0000ff"/>
     <use xlink:href="#mc9c268245b" x="108.00689" y="285.904415" style="fill: #0000ff; stroke: #0000ff"/>
     <use xlink:href="#mc9c268245b" x="125.093971" y="281.112623" style="fill: #0000ff; stroke: #0000ff"/>
     <use xlink:href="#mc9c268245b" x="142.181053" y="276.320831" style="fill: #0000ff; stroke: #0000ff"/>
     <use xlink:href="#mc9c268245b" x="159.268134" y="271.042372" style="fill: #0000ff; stroke: #0000ff"/>
     <use xlink:href="#mc9c268245b" x="176.355215" y="266.25058" style="fill: #0000ff; stroke: #0000ff"/>
     <use xlink:href="#mc9c268245b" x="193.442297" y="261.496223" style="fill: #0000ff; stroke: #0000ff"/>
     <use xlink:href="#mc9c268245b" x="210.529378" y="244.827899" style="fill: #0000ff; stroke: #0000ff"/>
     <use xlink:href="#mc9c268245b" x="227.616459" y="251.912638" style="fill: #0000ff; stroke: #0000ff"/>
     <use xlink:href="#mc9c268245b" x="244.703541" y="234.214827" style="fill: #0000ff; stroke: #0000ff"/>
     <use xlink:href="#mc9c268245b" x="261.790622" y="224.968166" style="fill: #0000ff; stroke: #0000ff"/>
     <use xlink:href="#mc9c268245b" x="278.877703" y="226.166114" style="fill: #0000ff; stroke: #0000ff"/>
     <use xlink:href="#mc9c268245b" x="295.964785" y="222.581628" style="fill: #0000ff; stroke: #0000ff"/>
     <use xlink:href="#mc9c268245b" x="313.051866" y="210.845481" style="fill: #0000ff; stroke: #0000ff"/>
     <use xlink:href="#mc9c268245b" x="330.138947" y="207.76638" style="fill: #0000ff; stroke: #0000ff"/>
     <use xlink:href="#mc9c268245b" x="347.226029" y="189.909466" style="fill: #0000ff; stroke: #0000ff"/>
     <use xlink:href="#mc9c268245b" x="364.31311" y="199.464974" style="fill: #0000ff; stroke: #0000ff"/>
     <use xlink:href="#mc9c268245b" x="381.400191" y="193.166388" style="fill: #0000ff; stroke: #0000ff"/>
     <use xlink:href="#mc9c268245b" x="398.487273" y="186.661904" style="fill: #0000ff; stroke: #0000ff"/>
    </g>
   </g>
   <g id="PathCollection_3">
    <defs>
     <path id="mddb293f2f6" d="M 0 3 
C 0.795609 3 1.55874 2.683901 2.12132 2.12132 
C 2.683901 1.55874 3 0.795609 3 0 
C 3 -0.795609 2.683901 -1.55874 2.12132 -2.12132 
C 1.55874 -2.683901 0.795609 -3 0 -3 
C -0.795609 -3 -1.55874 -2.683901 -2.12132 -2.12132 
C -2.683901 -1.55874 -3 -0.795609 -3 0 
C -3 0.795609 -2.683901 1.55874 -2.12132 2.12132 
C -1.55874 2.683901 -0.795609 3 0 3 
z
" style="stroke: #ffa500"/>
    </defs>
    <g clip-path="url(#pa5157bf661)">
     <use xlink:href="#mddb293f2f6" x="73.832727" y="295.038769" style="fill: #ffa500; stroke: #ffa500"/>
     <use xlink:href="#mddb293f2f6" x="90.919809" y="290.696208" style="fill: #ffa500; stroke: #ffa500"/>
     <use xlink:href="#mddb293f2f6" x="108.00689" y="285.417749" style="fill: #ffa500; stroke: #ffa500"/>
     <use xlink:href="#mddb293f2f6" x="125.093971" y="280.625957" style="fill: #ffa500; stroke: #ffa500"/>
     <use xlink:href="#mddb293f2f6" x="142.181053" y="275.8716" style="fill: #ffa500; stroke: #ffa500"/>
     <use xlink:href="#mddb293f2f6" x="159.268134" y="261.149941" style="fill: #ffa500; stroke: #ffa500"/>
     <use xlink:href="#mddb293f2f6" x="176.355215" y="249.928537" style="fill: #ffa500; stroke: #ffa500"/>
     <use xlink:href="#mddb293f2f6" x="193.442297" y="247.607513" style="fill: #ffa500; stroke: #ffa500"/>
     <use xlink:href="#mddb293f2f6" x="210.529378" y="239.82085" style="fill: #ffa500; stroke: #ffa500"/>
     <use xlink:href="#mddb293f2f6" x="227.616459" y="236.788544" style="fill: #ffa500; stroke: #ffa500"/>
     <use xlink:href="#mddb293f2f6" x="244.703541" y="214.682658" style="fill: #ffa500; stroke: #ffa500"/>
     <use xlink:href="#mddb293f2f6" x="261.790622" y="209.638174" style="fill: #ffa500; stroke: #ffa500"/>
     <use xlink:href="#mddb293f2f6" x="278.877703" y="191.987157" style="fill: #ffa500; stroke: #ffa500"/>
     <use xlink:href="#mddb293f2f6" x="295.964785" y="186.193955" style="fill: #ffa500; stroke: #ffa500"/>
     <use xlink:href="#mddb293f2f6" x="313.051866" y="176.207935" style="fill: #ffa500; stroke: #ffa500"/>
     <use xlink:href="#mddb293f2f6" x="330.138947" y="176.872422" style="fill: #ffa500; stroke: #ffa500"/>
     <use xlink:href="#mddb293f2f6" x="347.226029" y="154.513844" style="fill: #ffa500; stroke: #ffa500"/>
     <use xlink:href="#mddb293f2f6" x="364.31311" y="163.114737" style="fill: #ffa500; stroke: #ffa500"/>
     <use xlink:href="#mddb293f2f6" x="381.400191" y="140.952697" style="fill: #ffa500; stroke: #ffa500"/>
     <use xlink:href="#mddb293f2f6" x="398.487273" y="137.143597" style="fill: #ffa500; stroke: #ffa500"/>
    </g>
   </g>
   <g id="PathCollection_4">
    <defs>
     <path id="m32a3b07a5e" d="M 0 3 
C 0.795609 3 1.55874 2.683901 2.12132 2.12132 
C 2.683901 1.55874 3 0.795609 3 0 
C 3 -0.795609 2.683901 -1.55874 2.12132 -2.12132 
C 1.55874 -2.683901 0.795609 -3 0 -3 
C -0.795609 -3 -1.55874 -2.683901 -2.12132 -2.12132 
C -2.683901 -1.55874 -3 -0.795609 -3 0 
C -3 0.795609 -2.683901 1.55874 -2.12132 2.12132 
C -1.55874 2.683901 -0.795609 3 0 3 
z
" style="stroke: #008000"/>
    </defs>
    <g clip-path="url(#pa5157bf661)">
     <use xlink:href="#m32a3b07a5e" x="73.832727" y="295.488" style="fill: #008000; stroke: #008000"/>
     <use xlink:href="#m32a3b07a5e" x="90.919809" y="290.209541" style="fill: #008000; stroke: #008000"/>
     <use xlink:href="#m32a3b07a5e" x="108.00689" y="285.904415" style="fill: #008000; stroke: #008000"/>
     <use xlink:href="#m32a3b07a5e" x="125.093971" y="266.755964" style="fill: #008000; stroke: #008000"/>
     <use xlink:href="#m32a3b07a5e" x="142.181053" y="244.406745" style="fill: #008000; stroke: #008000"/>
     <use xlink:href="#m32a3b07a5e" x="159.268134" y="243.367899" style="fill: #008000; stroke: #008000"/>
     <use xlink:href="#m32a3b07a5e" x="176.355215" y="233.597135" style="fill: #008000; stroke: #008000"/>
     <use xlink:href="#m32a3b07a5e" x="193.442297" y="213.597018" style="fill: #008000; stroke: #008000"/>
     <use xlink:href="#m32a3b07a5e" x="210.529378" y="191.088696" style="fill: #008000; stroke: #008000"/>
     <use xlink:href="#m32a3b07a5e" x="227.616459" y="185.60434" style="fill: #008000; stroke: #008000"/>
     <use xlink:href="#m32a3b07a5e" x="244.703541" y="178.5196" style="fill: #008000; stroke: #008000"/>
     <use xlink:href="#m32a3b07a5e" x="261.790622" y="159.670636" style="fill: #008000; stroke: #008000"/>
     <use xlink:href="#m32a3b07a5e" x="278.877703" y="140.306928" style="fill: #008000; stroke: #008000"/>
     <use xlink:href="#m32a3b07a5e" x="295.964785" y="129.75937" style="fill: #008000; stroke: #008000"/>
     <use xlink:href="#m32a3b07a5e" x="313.051866" y="114.036301" style="fill: #008000; stroke: #008000"/>
     <use xlink:href="#m32a3b07a5e" x="330.138947" y="108.364766" style="fill: #008000; stroke: #008000"/>
     <use xlink:href="#m32a3b07a5e" x="347.226029" y="99.726437" style="fill: #008000; stroke: #008000"/>
     <use xlink:href="#m32a3b07a5e" x="364.31311" y="76.244783" style="fill: #008000; stroke: #008000"/>
     <use xlink:href="#m32a3b07a5e" x="381.400191" y="72.707092" style="fill: #008000; stroke: #008000"/>
     <use xlink:href="#m32a3b07a5e" x="398.487273" y="53.568" style="fill: #008000; stroke: #008000"/>
    </g>
   </g>
   <g id="matplotlib.axis_1">
    <g id="xtick_1">
     <g id="line2d_1">
      <defs>
       <path id="m70911d8f49" d="M 0 0 
L 0 3.5 
" style="stroke: #000000; stroke-width: 0.8"/>
      </defs>
      <g>
       <use xlink:href="#m70911d8f49" x="123.492057" y="307.584" style="stroke: #000000; stroke-width: 0.8"/>
      </g>
     </g>
     <g id="text_1">
      <!-- 2000 -->
      <g transform="translate(110.767057 322.182437) scale(0.1 -0.1)">
       <defs>
        <path id="DejaVuSans-32" d="M 1228 531 
L 3431 531 
L 3431 0 
L 469 0 
L 469 531 
Q 828 903 1448 1529 
Q 2069 2156 2228 2338 
Q 2531 2678 2651 2914 
Q 2772 3150 2772 3378 
Q 2772 3750 2511 3984 
Q 2250 4219 1831 4219 
Q 1534 4219 1204 4116 
Q 875 4013 500 3803 
L 500 4441 
Q 881 4594 1212 4672 
Q 1544 4750 1819 4750 
Q 2544 4750 2975 4387 
Q 3406 4025 3406 3419 
Q 3406 3131 3298 2873 
Q 3191 2616 2906 2266 
Q 2828 2175 2409 1742 
Q 1991 1309 1228 531 
z
" transform="scale(0.015625)"/>
        <path id="DejaVuSans-30" d="M 2034 4250 
Q 1547 4250 1301 3770 
Q 1056 3291 1056 2328 
Q 1056 1369 1301 889 
Q 1547 409 2034 409 
Q 2525 409 2770 889 
Q 3016 1369 3016 2328 
Q 3016 3291 2770 3770 
Q 2525 4250 2034 4250 
z
M 2034 4750 
Q 2819 4750 3233 4129 
Q 3647 3509 3647 2328 
Q 3647 1150 3233 529 
Q 2819 -91 2034 -91 
Q 1250 -91 836 529 
Q 422 1150 422 2328 
Q 422 3509 836 4129 
Q 1250 4750 2034 4750 
z
" transform="scale(0.015625)"/>
       </defs>
       <use xlink:href="#DejaVuSans-32"/>
       <use xlink:href="#DejaVuSans-30" x="63.623047"/>
       <use xlink:href="#DejaVuSans-30" x="127.246094"/>
       <use xlink:href="#DejaVuSans-30" x="190.869141"/>
      </g>
     </g>
    </g>
    <g id="xtick_2">
     <g id="line2d_2">
      <g>
       <use xlink:href="#m70911d8f49" x="190.238469" y="307.584" style="stroke: #000000; stroke-width: 0.8"/>
      </g>
     </g>
     <g id="text_2">
      <!-- 4000 -->
      <g transform="translate(177.513469 322.182437) scale(0.1 -0.1)">
       <defs>
        <path id="DejaVuSans-34" d="M 2419 4116 
L 825 1625 
L 2419 1625 
L 2419 4116 
z
M 2253 4666 
L 3047 4666 
L 3047 1625 
L 3713 1625 
L 3713 1100 
L 3047 1100 
L 3047 0 
L 2419 0 
L 2419 1100 
L 313 1100 
L 313 1709 
L 2253 4666 
z
" transform="scale(0.015625)"/>
       </defs>
       <use xlink:href="#DejaVuSans-34"/>
       <use xlink:href="#DejaVuSans-30" x="63.623047"/>
       <use xlink:href="#DejaVuSans-30" x="127.246094"/>
       <use xlink:href="#DejaVuSans-30" x="190.869141"/>
      </g>
     </g>
    </g>
    <g id="xtick_3">
     <g id="line2d_3">
      <g>
       <use xlink:href="#m70911d8f49" x="256.98488" y="307.584" style="stroke: #000000; stroke-width: 0.8"/>
      </g>
     </g>
     <g id="text_3">
      <!-- 6000 -->
      <g transform="translate(244.25988 322.182437) scale(0.1 -0.1)">
       <defs>
        <path id="DejaVuSans-36" d="M 2113 2584 
Q 1688 2584 1439 2293 
Q 1191 2003 1191 1497 
Q 1191 994 1439 701 
Q 1688 409 2113 409 
Q 2538 409 2786 701 
Q 3034 994 3034 1497 
Q 3034 2003 2786 2293 
Q 2538 2584 2113 2584 
z
M 3366 4563 
L 3366 3988 
Q 3128 4100 2886 4159 
Q 2644 4219 2406 4219 
Q 1781 4219 1451 3797 
Q 1122 3375 1075 2522 
Q 1259 2794 1537 2939 
Q 1816 3084 2150 3084 
Q 2853 3084 3261 2657 
Q 3669 2231 3669 1497 
Q 3669 778 3244 343 
Q 2819 -91 2113 -91 
Q 1303 -91 875 529 
Q 447 1150 447 2328 
Q 447 3434 972 4092 
Q 1497 4750 2381 4750 
Q 2619 4750 2861 4703 
Q 3103 4656 3366 4563 
z
" transform="scale(0.015625)"/>
       </defs>
       <use xlink:href="#DejaVuSans-36"/>
       <use xlink:href="#DejaVuSans-30" x="63.623047"/>
       <use xlink:href="#DejaVuSans-30" x="127.246094"/>
       <use xlink:href="#DejaVuSans-30" x="190.869141"/>
      </g>
     </g>
    </g>
    <g id="xtick_4">
     <g id="line2d_4">
      <g>
       <use xlink:href="#m70911d8f49" x="323.731292" y="307.584" style="stroke: #000000; stroke-width: 0.8"/>
      </g>
     </g>
     <g id="text_4">
      <!-- 8000 -->
      <g transform="translate(311.006292 322.182437) scale(0.1 -0.1)">
       <defs>
        <path id="DejaVuSans-38" d="M 2034 2216 
Q 1584 2216 1326 1975 
Q 1069 1734 1069 1313 
Q 1069 891 1326 650 
Q 1584 409 2034 409 
Q 2484 409 2743 651 
Q 3003 894 3003 1313 
Q 3003 1734 2745 1975 
Q 2488 2216 2034 2216 
z
M 1403 2484 
Q 997 2584 770 2862 
Q 544 3141 544 3541 
Q 544 4100 942 4425 
Q 1341 4750 2034 4750 
Q 2731 4750 3128 4425 
Q 3525 4100 3525 3541 
Q 3525 3141 3298 2862 
Q 3072 2584 2669 2484 
Q 3125 2378 3379 2068 
Q 3634 1759 3634 1313 
Q 3634 634 3220 271 
Q 2806 -91 2034 -91 
Q 1263 -91 848 271 
Q 434 634 434 1313 
Q 434 1759 690 2068 
Q 947 2378 1403 2484 
z
M 1172 3481 
Q 1172 3119 1398 2916 
Q 1625 2713 2034 2713 
Q 2441 2713 2670 2916 
Q 2900 3119 2900 3481 
Q 2900 3844 2670 4047 
Q 2441 4250 2034 4250 
Q 1625 4250 1398 4047 
Q 1172 3844 1172 3481 
z
" transform="scale(0.015625)"/>
       </defs>
       <use xlink:href="#DejaVuSans-38"/>
       <use xlink:href="#DejaVuSans-30" x="63.623047"/>
       <use xlink:href="#DejaVuSans-30" x="127.246094"/>
       <use xlink:href="#DejaVuSans-30" x="190.869141"/>
      </g>
     </g>
    </g>
    <g id="xtick_5">
     <g id="line2d_5">
      <g>
       <use xlink:href="#m70911d8f49" x="390.477703" y="307.584" style="stroke: #000000; stroke-width: 0.8"/>
      </g>
     </g>
     <g id="text_5">
      <!-- 10000 -->
      <g transform="translate(374.571453 322.182437) scale(0.1 -0.1)">
       <defs>
        <path id="DejaVuSans-31" d="M 794 531 
L 1825 531 
L 1825 4091 
L 703 3866 
L 703 4441 
L 1819 4666 
L 2450 4666 
L 2450 531 
L 3481 531 
L 3481 0 
L 794 0 
L 794 531 
z
" transform="scale(0.015625)"/>
       </defs>
       <use xlink:href="#DejaVuSans-31"/>
       <use xlink:href="#DejaVuSans-30" x="63.623047"/>
       <use xlink:href="#DejaVuSans-30" x="127.246094"/>
       <use xlink:href="#DejaVuSans-30" x="190.869141"/>
       <use xlink:href="#DejaVuSans-30" x="254.492188"/>
      </g>
     </g>
    </g>
   </g>
   <g id="matplotlib.axis_2">
    <g id="ytick_1">
     <g id="line2d_6">
      <defs>
       <path id="m96ced14d1c" d="M 0 0 
L -3.5 0 
" style="stroke: #000000; stroke-width: 0.8"/>
      </defs>
      <g>
       <use xlink:href="#m96ced14d1c" x="57.6" y="303.686457" style="stroke: #000000; stroke-width: 0.8"/>
      </g>
     </g>
     <g id="text_6">
      <!-- 0 -->
      <g transform="translate(44.2375 307.485676) scale(0.1 -0.1)">
       <use xlink:href="#DejaVuSans-30"/>
      </g>
     </g>
    </g>
    <g id="ytick_2">
     <g id="line2d_7">
      <g>
       <use xlink:href="#m96ced14d1c" x="57.6" y="256.89161" style="stroke: #000000; stroke-width: 0.8"/>
      </g>
     </g>
     <g id="text_7">
      <!-- 5000 -->
      <g transform="translate(25.15 260.690829) scale(0.1 -0.1)">
       <defs>
        <path id="DejaVuSans-35" d="M 691 4666 
L 3169 4666 
L 3169 4134 
L 1269 4134 
L 1269 2991 
Q 1406 3038 1543 3061 
Q 1681 3084 1819 3084 
Q 2600 3084 3056 2656 
Q 3513 2228 3513 1497 
Q 3513 744 3044 326 
Q 2575 -91 1722 -91 
Q 1428 -91 1123 -41 
Q 819 9 494 109 
L 494 744 
Q 775 591 1075 516 
Q 1375 441 1709 441 
Q 2250 441 2565 725 
Q 2881 1009 2881 1497 
Q 2881 1984 2565 2268 
Q 2250 2553 1709 2553 
Q 1456 2553 1204 2497 
Q 953 2441 691 2322 
L 691 4666 
z
" transform="scale(0.015625)"/>
       </defs>
       <use xlink:href="#DejaVuSans-35"/>
       <use xlink:href="#DejaVuSans-30" x="63.623047"/>
       <use xlink:href="#DejaVuSans-30" x="127.246094"/>
       <use xlink:href="#DejaVuSans-30" x="190.869141"/>
      </g>
     </g>
    </g>
    <g id="ytick_3">
     <g id="line2d_8">
      <g>
       <use xlink:href="#m96ced14d1c" x="57.6" y="210.096763" style="stroke: #000000; stroke-width: 0.8"/>
      </g>
     </g>
     <g id="text_8">
      <!-- 10000 -->
      <g transform="translate(18.7875 213.895982) scale(0.1 -0.1)">
       <use xlink:href="#DejaVuSans-31"/>
       <use xlink:href="#DejaVuSans-30" x="63.623047"/>
       <use xlink:href="#DejaVuSans-30" x="127.246094"/>
       <use xlink:href="#DejaVuSans-30" x="190.869141"/>
       <use xlink:href="#DejaVuSans-30" x="254.492188"/>
      </g>
     </g>
    </g>
    <g id="ytick_4">
     <g id="line2d_9">
      <g>
       <use xlink:href="#m96ced14d1c" x="57.6" y="163.301916" style="stroke: #000000; stroke-width: 0.8"/>
      </g>
     </g>
     <g id="text_9">
      <!-- 15000 -->
      <g transform="translate(18.7875 167.101135) scale(0.1 -0.1)">
       <use xlink:href="#DejaVuSans-31"/>
       <use xlink:href="#DejaVuSans-35" x="63.623047"/>
       <use xlink:href="#DejaVuSans-30" x="127.246094"/>
       <use xlink:href="#DejaVuSans-30" x="190.869141"/>
       <use xlink:href="#DejaVuSans-30" x="254.492188"/>
      </g>
     </g>
    </g>
    <g id="ytick_5">
     <g id="line2d_10">
      <g>
       <use xlink:href="#m96ced14d1c" x="57.6" y="116.507069" style="stroke: #000000; stroke-width: 0.8"/>
      </g>
     </g>
     <g id="text_10">
      <!-- 20000 -->
      <g transform="translate(18.7875 120.306288) scale(0.1 -0.1)">
       <use xlink:href="#DejaVuSans-32"/>
       <use xlink:href="#DejaVuSans-30" x="63.623047"/>
       <use xlink:href="#DejaVuSans-30" x="127.246094"/>
       <use xlink:href="#DejaVuSans-30" x="190.869141"/>
       <use xlink:href="#DejaVuSans-30" x="254.492188"/>
      </g>
     </g>
    </g>
    <g id="ytick_6">
     <g id="line2d_11">
      <g>
       <use xlink:href="#m96ced14d1c" x="57.6" y="69.712222" style="stroke: #000000; stroke-width: 0.8"/>
      </g>
     </g>
     <g id="text_11">
      <!-- 25000 -->
      <g transform="translate(18.7875 73.511441) scale(0.1 -0.1)">
       <use xlink:href="#DejaVuSans-32"/>
       <use xlink:href="#DejaVuSans-35" x="63.623047"/>
       <use xlink:href="#DejaVuSans-30" x="127.246094"/>
       <use xlink:href="#DejaVuSans-30" x="190.869141"/>
       <use xlink:href="#DejaVuSans-30" x="254.492188"/>
      </g>
     </g>
    </g>
   </g>
   <g id="patch_3">
    <path d="M 57.6 307.584 
L 57.6 41.472 
" style="fill: none; stroke: #000000; stroke-width: 0.8; stroke-linejoin: miter; stroke-linecap: square"/>
   </g>
   <g id="patch_4">
    <path d="M 414.72 307.584 
L 414.72 41.472 
" style="fill: none; stroke: #000000; stroke-width: 0.8; stroke-linejoin: miter; stroke-linecap: square"/>
   </g>
   <g id="patch_5">
    <path d="M 57.6 307.584 
L 414.72 307.584 
" style="fill: none; stroke: #000000; stroke-width: 0.8; stroke-linejoin: miter; stroke-linecap: square"/>
   </g>
   <g id="patch_6">
    <path d="M 57.6 41.472 
L 414.72 41.472 
" style="fill: none; stroke: #000000; stroke-width: 0.8; stroke-linejoin: miter; stroke-linecap: square"/>
   </g>
  </g>
 </g>
 <defs>
  <clipPath id="pa5157bf661">
   <rect x="57.6" y="41.472" width="357.12" height="266.112"/>
  </clipPath>
 </defs>
</svg>
